<svg width="19" height="19" viewBox="0 0 19 19" fill="none" xmlns="http://www.w3.org/2000/svg">
<path fill-rule="evenodd" clip-rule="evenodd" d="M9.49992 1.58325C5.12992 1.58325 1.58325 5.12992 1.58325 9.49992C1.58325 13.8699 5.12992 17.4166 9.49992 17.4166C13.8699 17.4166 17.4166 13.8699 17.4166 9.49992C17.4166 5.12992 13.8699 1.58325 9.49992 1.58325ZM8.70825 5.54158V8.70825H5.54158V10.2916H8.70825V13.4583H10.2916V10.2916H13.4583V8.70825H10.2916V5.54158H8.70825ZM3.16659 9.49992C3.16659 12.9912 6.00867 15.8333 9.49992 15.8333C12.9912 15.8333 15.8333 12.9912 15.8333 9.49992C15.8333 6.00867 12.9912 3.16659 9.49992 3.16659C6.00867 3.16659 3.16659 6.00867 3.16659 9.49992Z" fill="#E3A587"/>
</svg>
