<svg width="7" height="14" viewBox="0 0 7 14" fill="none" xmlns="http://www.w3.org/2000/svg">
<path d="M2.70703 13.8018V12.1465C2.35547 12.1416 2.02344 12.0732 1.71094 11.9414C1.39844 11.8047 1.12744 11.6216 0.897949 11.3921C0.668457 11.1577 0.485352 10.8843 0.348633 10.5718C0.216797 10.2593 0.150879 9.9248 0.150879 9.56836V9.15088L1.0957 8.99707V9.56836C1.0957 9.79785 1.13721 10.0127 1.22021 10.2129C1.30322 10.4131 1.41797 10.5889 1.56445 10.7402C1.71094 10.8916 1.88184 11.0137 2.07715 11.1064C2.27246 11.1943 2.48242 11.2432 2.70703 11.2529V6.99023C2.38477 6.87305 2.06982 6.74609 1.76221 6.60938C1.45947 6.46777 1.18848 6.28955 0.949219 6.07471C0.709961 5.85986 0.51709 5.59619 0.370605 5.28369C0.224121 4.97119 0.150879 4.58545 0.150879 4.12646V3.92871C0.150879 3.57715 0.216797 3.24756 0.348633 2.93994C0.485352 2.62744 0.668457 2.354 0.897949 2.11963C1.12744 1.88525 1.39844 1.69971 1.71094 1.56299C2.02344 1.42627 2.35547 1.35547 2.70703 1.35059V0.00292969H3.4541V1.35059C3.80078 1.35547 4.12793 1.42871 4.43555 1.57031C4.74316 1.70703 5.01172 1.89258 5.24121 2.12695C5.4707 2.35645 5.65137 2.62744 5.7832 2.93994C5.91992 3.24756 5.98828 3.57715 5.98828 3.92871V4.19971L5.04346 4.35352V3.92871C5.04346 3.7041 5.00195 3.4917 4.91895 3.2915C4.83594 3.09131 4.72363 2.91797 4.58203 2.77148C4.44043 2.62012 4.27197 2.49805 4.07666 2.40527C3.88135 2.3125 3.67383 2.26123 3.4541 2.25146V6.31641C3.77148 6.43848 4.08643 6.57275 4.39893 6.71924C4.71143 6.86572 4.98975 7.04883 5.23389 7.26855C5.48291 7.48828 5.68311 7.75928 5.83447 8.08154C5.98584 8.39893 6.06152 8.78955 6.06152 9.25342V9.56836C6.06152 9.9248 5.99316 10.2593 5.85645 10.5718C5.72461 10.8843 5.5415 11.1577 5.30713 11.3921C5.07275 11.6265 4.79932 11.812 4.48682 11.9487C4.17432 12.0806 3.83984 12.1465 3.4834 12.1465H3.4541V13.8018H2.70703ZM5.1167 9.25342C5.1167 8.9751 5.07275 8.7334 4.98486 8.52832C4.89697 8.31836 4.77734 8.1377 4.62598 7.98633C4.47949 7.83008 4.30371 7.6958 4.09863 7.5835C3.89844 7.47119 3.68359 7.36865 3.4541 7.27588V11.2529C3.68359 11.2529 3.89844 11.209 4.09863 11.1211C4.30371 11.0332 4.47949 10.9136 4.62598 10.7622C4.77734 10.606 4.89697 10.4277 4.98486 10.2275C5.07275 10.0225 5.1167 9.80273 5.1167 9.56836V9.25342ZM1.0957 4.12646C1.0957 4.38525 1.13721 4.6123 1.22021 4.80762C1.30322 4.99805 1.41797 5.1665 1.56445 5.31299C1.71094 5.45947 1.88184 5.58887 2.07715 5.70117C2.27246 5.81348 2.48242 5.91846 2.70703 6.01611V2.25146C2.48242 2.26123 2.27246 2.3125 2.07715 2.40527C1.88184 2.49805 1.71094 2.62012 1.56445 2.77148C1.41797 2.91797 1.30322 3.09131 1.22021 3.2915C1.13721 3.4917 1.0957 3.7041 1.0957 3.92871V4.12646Z" fill="#DB5A42"/>
</svg>
