<svg width="54" height="54" viewBox="0 0 54 54" fill="none" xmlns="http://www.w3.org/2000/svg">
<path fill-rule="evenodd" clip-rule="evenodd" d="M27 11.4525C29.4525 8.5725 33.21 6.75 37.125 6.75C44.055 6.75 49.5 12.195 49.5 19.125C49.5 27.623 41.8625 34.5486 30.291 45.0416L30.2625 45.0675L27 48.0375L23.7375 45.09L23.6487 45.0093C12.1109 34.5246 4.5 27.6083 4.5 19.125C4.5 12.195 9.945 6.75 16.875 6.75C20.79 6.75 24.5475 8.5725 27 11.4525ZM27 41.9625L27.225 41.7375C37.935 32.04 45 25.6275 45 19.125C45 14.625 41.625 11.25 37.125 11.25C33.66 11.25 30.285 13.4775 29.115 16.56H24.9075C23.715 13.4775 20.34 11.25 16.875 11.25C12.375 11.25 9 14.625 9 19.125C9 25.6275 16.065 32.04 26.775 41.7375L27 41.9625Z" fill="#FFD275"/>
</svg>
