<svg width="54" height="54" viewBox="0 0 54 54" fill="none" xmlns="http://www.w3.org/2000/svg">
<path fill-rule="evenodd" clip-rule="evenodd" d="M26.6448 9C21.7377 9 17.7632 13.0275 17.7632 18C17.7632 22.9725 21.7377 27 26.6448 27C31.5518 27 35.5263 22.9725 35.5263 18C35.5263 13.0275 31.5518 9 26.6448 9ZM31.3076 18C31.3076 15.39 29.2204 13.275 26.6447 13.275C24.0691 13.275 21.9819 15.39 21.9819 18C21.9819 20.61 24.0691 22.725 26.6447 22.725C29.2204 22.725 31.3076 20.61 31.3076 18ZM40.1892 38.25C40.1892 36.81 33.2393 33.525 26.6447 33.525C20.0502 33.525 13.1003 36.81 13.1003 38.25V40.725H40.1892V38.25ZM8.88159 38.25C8.88159 32.265 20.7163 29.25 26.6447 29.25C32.5732 29.25 44.4079 32.265 44.4079 38.25V45H8.88159V38.25Z" fill="#FFD275"/>
</svg>
